<svg width="194" height="19" viewBox="0 0 194 19" fill="none" xmlns="http://www.w3.org/2000/svg">
<path d="M3.93182 3.36364V15H0.795455V3.36364H3.93182ZM9.71165 15.1591C8.77983 15.1591 7.9768 14.9811 7.30256 14.625C6.6321 14.2652 6.11506 13.75 5.75142 13.0795C5.39157 12.4053 5.21165 11.5985 5.21165 10.6591C5.21165 9.75758 5.39347 8.9697 5.7571 8.29545C6.12074 7.62121 6.634 7.09659 7.29688 6.72159C7.95975 6.34659 8.74195 6.15909 9.64347 6.15909C10.3026 6.15909 10.8991 6.26136 11.4332 6.46591C11.9673 6.67045 12.4238 6.9678 12.8026 7.35795C13.1813 7.74432 13.473 8.21402 13.6776 8.76705C13.8821 9.32008 13.9844 9.94318 13.9844 10.6364V11.3636H6.18892V9.63636H11.098C11.0942 9.38636 11.0298 9.16667 10.9048 8.97727C10.7836 8.78409 10.6188 8.63447 10.4105 8.52841C10.206 8.41856 9.97301 8.36364 9.71165 8.36364C9.45786 8.36364 9.22491 8.41856 9.01278 8.52841C8.80066 8.63447 8.63021 8.7822 8.50142 8.97159C8.37642 9.16098 8.31013 9.38258 8.30256 9.63636V11.5C8.30256 11.7803 8.36127 12.0303 8.47869 12.25C8.59612 12.4697 8.76468 12.642 8.98438 12.767C9.20407 12.892 9.46922 12.9545 9.77983 12.9545C9.99574 12.9545 10.1927 12.9242 10.3707 12.8636C10.5526 12.803 10.7079 12.7159 10.8366 12.6023C10.9654 12.4848 11.0601 12.3447 11.1207 12.1818H13.9844C13.8859 12.7879 13.6529 13.3144 13.2855 13.7614C12.9181 14.2045 12.4313 14.5492 11.8253 14.7955C11.223 15.0379 10.5185 15.1591 9.71165 15.1591ZM18.4006 3.36364V15H15.2642V3.36364H18.4006ZM22.4304 15.1364C21.8736 15.1364 21.3812 15.0455 20.9531 14.8636C20.5289 14.678 20.1955 14.3977 19.9531 14.0227C19.7107 13.6477 19.5895 13.1705 19.5895 12.5909C19.5895 12.1136 19.6709 11.7064 19.8338 11.3693C19.9967 11.0284 20.224 10.75 20.5156 10.5341C20.8073 10.3182 21.1463 10.1534 21.5327 10.0398C21.9228 9.92614 22.3433 9.85227 22.794 9.81818C23.2827 9.7803 23.6747 9.73485 23.9702 9.68182C24.2694 9.625 24.4853 9.54735 24.6179 9.44886C24.7505 9.34659 24.8168 9.21212 24.8168 9.04545V9.02273C24.8168 8.79545 24.7296 8.62121 24.5554 8.5C24.3812 8.37879 24.1577 8.31818 23.8849 8.31818C23.5857 8.31818 23.3414 8.38447 23.152 8.51705C22.9664 8.64583 22.8546 8.8447 22.8168 9.11364H19.9304C19.9683 8.58333 20.1368 8.0947 20.4361 7.64773C20.7391 7.19697 21.1804 6.83712 21.7599 6.56818C22.3395 6.29545 23.063 6.15909 23.9304 6.15909C24.5554 6.15909 25.116 6.23295 25.6122 6.38068C26.1084 6.52462 26.5308 6.72727 26.8793 6.98864C27.2277 7.24621 27.4929 7.54924 27.6747 7.89773C27.8603 8.24242 27.9531 8.61742 27.9531 9.02273V15H25.0213V13.7727H24.9531C24.7789 14.0985 24.5668 14.3617 24.3168 14.5625C24.0705 14.7633 23.7884 14.9091 23.4702 15C23.1558 15.0909 22.8092 15.1364 22.4304 15.1364ZM23.4531 13.1591C23.6918 13.1591 23.9152 13.1098 24.1236 13.0114C24.3357 12.9129 24.508 12.7708 24.6406 12.5852C24.7732 12.3996 24.8395 12.1742 24.8395 11.9091V11.1818C24.7562 11.2159 24.6671 11.2481 24.5724 11.2784C24.4815 11.3087 24.383 11.3371 24.277 11.3636C24.1747 11.3902 24.0649 11.4148 23.9474 11.4375C23.8338 11.4602 23.7145 11.4811 23.5895 11.5C23.3471 11.5379 23.1482 11.6004 22.9929 11.6875C22.8414 11.7708 22.7277 11.875 22.652 12C22.58 12.1212 22.544 12.2576 22.544 12.4091C22.544 12.6515 22.6293 12.8371 22.7997 12.9659C22.9702 13.0947 23.188 13.1591 23.4531 13.1591ZM32.5881 10.0909V15H29.4517V6.27273H32.429V7.93182H32.5199C32.7093 7.37879 33.0426 6.94508 33.5199 6.63068C34.0009 6.31629 34.5616 6.15909 35.2017 6.15909C35.8191 6.15909 36.3551 6.30114 36.8097 6.58523C37.268 6.86553 37.6222 7.25189 37.8722 7.74432C38.1259 8.23674 38.2509 8.79924 38.2472 9.43182V15H35.1108V10.0909C35.1146 9.65909 35.0047 9.32008 34.7812 9.07386C34.5616 8.82765 34.2547 8.70455 33.8608 8.70455C33.6032 8.70455 33.3778 8.76136 33.1847 8.875C32.9953 8.98485 32.8494 9.14394 32.7472 9.35227C32.6449 9.55682 32.5919 9.80303 32.5881 10.0909ZM42.9545 15.1136C42.3333 15.1136 41.7614 14.9508 41.2386 14.625C40.7197 14.2992 40.303 13.8049 39.9886 13.142C39.678 12.4792 39.5227 11.6439 39.5227 10.6364C39.5227 9.58333 39.6856 8.72727 40.0114 8.06818C40.3409 7.40909 40.7652 6.92614 41.2841 6.61932C41.8068 6.3125 42.3561 6.15909 42.9318 6.15909C43.3636 6.15909 43.7424 6.23485 44.0682 6.38636C44.3939 6.53409 44.6667 6.73295 44.8864 6.98295C45.1061 7.22917 45.2727 7.5 45.3864 7.79545H45.4318V3.36364H48.5682V15H45.4545V13.5682H45.3864C45.2652 13.8636 45.0909 14.1288 44.8636 14.3636C44.6402 14.5947 44.3674 14.7784 44.0455 14.9148C43.7273 15.0473 43.3636 15.1136 42.9545 15.1136ZM44.1136 12.7045C44.4015 12.7045 44.6477 12.6212 44.8523 12.4545C45.0606 12.2841 45.2197 12.0455 45.3295 11.7386C45.4432 11.428 45.5 11.0606 45.5 10.6364C45.5 10.2045 45.4432 9.83523 45.3295 9.52841C45.2197 9.2178 45.0606 8.98106 44.8523 8.81818C44.6477 8.65151 44.4015 8.56818 44.1136 8.56818C43.8258 8.56818 43.5795 8.65151 43.375 8.81818C43.1742 8.98106 43.0189 9.2178 42.9091 9.52841C42.803 9.83523 42.75 10.2045 42.75 10.6364C42.75 11.0682 42.803 11.4394 42.9091 11.75C43.0189 12.0568 43.1742 12.2936 43.375 12.4602C43.5795 12.6231 43.8258 12.7045 44.1136 12.7045ZM54.9489 15.1591C54.2708 15.1591 53.6269 15.053 53.017 14.8409C52.411 14.625 51.8731 14.286 51.4034 13.8239C50.9337 13.3617 50.5644 12.7595 50.2955 12.017C50.0303 11.2746 49.8996 10.375 49.9034 9.31818C49.9072 8.375 50.0284 7.52652 50.267 6.77273C50.5095 6.01894 50.8523 5.37689 51.2955 4.84659C51.7424 4.31629 52.2765 3.91098 52.8977 3.63068C53.5189 3.34659 54.2102 3.20455 54.9716 3.20455C55.8277 3.20455 56.5814 3.36932 57.233 3.69886C57.8845 4.02841 58.4034 4.4697 58.7898 5.02273C59.1799 5.57197 59.4072 6.17803 59.4716 6.84091H56.358C56.286 6.51136 56.1193 6.27083 55.858 6.11932C55.6004 5.96401 55.3049 5.88636 54.9716 5.88636C54.3087 5.88636 53.822 6.17424 53.5114 6.75C53.2045 7.32576 53.0473 8.08333 53.0398 9.02273H53.108C53.2557 8.66667 53.4792 8.36174 53.7784 8.10795C54.0777 7.85417 54.4261 7.65909 54.8239 7.52273C55.2216 7.38636 55.642 7.31818 56.0852 7.31818C56.7898 7.31818 57.4053 7.47727 57.9318 7.79545C58.4621 8.11364 58.875 8.54924 59.1705 9.10227C59.4659 9.6553 59.6117 10.2879 59.608 11C59.6117 11.8333 59.4148 12.5625 59.017 13.1875C58.6231 13.8125 58.0758 14.2973 57.375 14.642C56.6742 14.9867 55.8655 15.1591 54.9489 15.1591ZM54.9261 12.7727C55.2405 12.7727 55.5189 12.7008 55.7614 12.5568C56.0076 12.4129 56.1989 12.2159 56.3352 11.9659C56.4754 11.7159 56.5436 11.4318 56.5398 11.1136C56.5436 10.7917 56.4754 10.5076 56.3352 10.2614C56.1989 10.0114 56.0076 9.81439 55.7614 9.67045C55.5189 9.52652 55.2405 9.45455 54.9261 9.45455C54.6951 9.45455 54.4811 9.49621 54.2841 9.57955C54.0909 9.65909 53.9223 9.77462 53.7784 9.92614C53.6345 10.0739 53.5208 10.25 53.4375 10.4545C53.358 10.6553 53.3163 10.875 53.3125 11.1136C53.3163 11.4318 53.3883 11.7159 53.5284 11.9659C53.6686 12.2159 53.8598 12.4129 54.1023 12.5568C54.3447 12.7008 54.6193 12.7727 54.9261 12.7727ZM65.5838 3.20455C66.2618 3.20455 66.9039 3.3125 67.5099 3.52841C68.116 3.74053 68.652 4.07576 69.1179 4.53409C69.5876 4.99242 69.955 5.59091 70.2202 6.32955C70.4891 7.06439 70.6255 7.95455 70.6293 9C70.633 9.95455 70.5137 10.8125 70.2713 11.5739C70.0327 12.3314 69.6899 12.9773 69.2429 13.5114C68.7997 14.0455 68.2656 14.4545 67.6406 14.7386C67.0194 15.0189 66.3262 15.1591 65.5611 15.1591C64.7012 15.1591 63.9455 14.9943 63.294 14.6648C62.6425 14.3352 62.1236 13.892 61.7372 13.3352C61.3509 12.7784 61.1255 12.1591 61.0611 11.4773H64.1747C64.2505 11.8295 64.4171 12.0852 64.6747 12.2443C64.9323 12.3996 65.2277 12.4773 65.5611 12.4773C66.2277 12.4773 66.7145 12.1894 67.0213 11.6136C67.3319 11.0341 67.4891 10.2614 67.4929 9.29545H67.4247C67.277 9.65152 67.0535 9.95644 66.7543 10.2102C66.455 10.464 66.1065 10.6591 65.7088 10.7955C65.3111 10.9318 64.8906 11 64.4474 11C63.7467 11 63.133 10.8428 62.6065 10.5284C62.08 10.2102 61.669 9.77651 61.3736 9.22727C61.0781 8.67424 60.9285 8.04545 60.9247 7.34091C60.9209 6.51515 61.116 5.79167 61.5099 5.17045C61.9039 4.54924 62.4512 4.06629 63.152 3.72159C63.8527 3.37689 64.6634 3.20455 65.5838 3.20455ZM65.6065 5.59091C65.2921 5.59091 65.0118 5.66288 64.7656 5.80682C64.5232 5.95076 64.3319 6.14583 64.1918 6.39205C64.0554 6.63826 63.9891 6.91667 63.9929 7.22727C63.9967 7.53788 64.0668 7.81629 64.2031 8.0625C64.3433 8.30871 64.5327 8.50379 64.7713 8.64773C65.0137 8.79167 65.2921 8.86364 65.6065 8.86364C65.8376 8.86364 66.0516 8.82386 66.2486 8.74432C66.4455 8.66098 66.616 8.54545 66.7599 8.39773C66.9077 8.24621 67.0213 8.07197 67.1009 7.875C67.1842 7.67424 67.224 7.45833 67.2202 7.22727C67.2164 6.91667 67.1444 6.63826 67.0043 6.39205C66.8641 6.14583 66.6728 5.95076 66.4304 5.80682C66.188 5.66288 65.9134 5.59091 65.6065 5.59091ZM71.9915 15V12.7273L76.3324 9.13636C76.6203 8.89773 76.8665 8.67424 77.071 8.46591C77.2794 8.25379 77.4384 8.03598 77.5483 7.8125C77.6619 7.58902 77.7188 7.34091 77.7188 7.06818C77.7188 6.76894 77.6544 6.51326 77.5256 6.30114C77.4006 6.08901 77.2263 5.92614 77.0028 5.8125C76.7794 5.69508 76.5218 5.63636 76.2301 5.63636C75.9384 5.63636 75.6809 5.69508 75.4574 5.8125C75.2377 5.92992 75.0672 6.10227 74.946 6.32955C74.8248 6.55682 74.7642 6.83333 74.7642 7.15909H71.7642C71.7642 6.34091 71.9479 5.63636 72.3153 5.04545C72.6828 4.45455 73.2017 4 73.8722 3.68182C74.5426 3.36364 75.3286 3.20455 76.2301 3.20455C77.1619 3.20455 77.9688 3.35417 78.6506 3.65341C79.3362 3.94886 79.8646 4.36553 80.2358 4.90341C80.6108 5.44129 80.7983 6.07197 80.7983 6.79545C80.7983 7.24242 80.7055 7.6875 80.5199 8.13068C80.3343 8.57008 80.0009 9.05682 79.5199 9.59091C79.0388 10.125 78.3551 10.7614 77.4688 11.5L76.3778 12.4091V12.4773H80.9233V15H71.9915ZM86.9943 15.1591C86.1004 15.1591 85.3068 15.0019 84.6136 14.6875C83.9242 14.3693 83.3807 13.9318 82.983 13.375C82.589 12.8182 82.3883 12.178 82.3807 11.4545H85.4489C85.4602 11.8561 85.6155 12.1761 85.9148 12.4148C86.2178 12.6534 86.5777 12.7727 86.9943 12.7727C87.3163 12.7727 87.6004 12.7045 87.8466 12.5682C88.0928 12.428 88.286 12.2311 88.4261 11.9773C88.5663 11.7235 88.6345 11.428 88.6307 11.0909C88.6345 10.75 88.5663 10.4545 88.4261 10.2045C88.286 9.95076 88.0928 9.75568 87.8466 9.61932C87.6004 9.47917 87.3163 9.40909 86.9943 9.40909C86.661 9.40909 86.3523 9.49053 86.0682 9.65341C85.7879 9.8125 85.5814 10.0341 85.4489 10.3182L82.6761 9.77273L83.1307 3.36364H90.9489V5.88636H85.7216L85.4943 8.45455H85.5625C85.7443 8.10227 86.0587 7.81061 86.5057 7.57955C86.9527 7.3447 87.4716 7.22727 88.0625 7.22727C88.7557 7.22727 89.3731 7.38826 89.9148 7.71023C90.4602 8.0322 90.8902 8.47727 91.2045 9.04545C91.5227 9.60985 91.6799 10.2614 91.6761 11C91.6799 11.8106 91.4867 12.5303 91.0966 13.1591C90.7102 13.7841 90.1667 14.2746 89.4659 14.6307C88.7652 14.983 87.9413 15.1591 86.9943 15.1591ZM101.288 18.5455C100.046 18.5455 98.9342 18.3769 97.9531 18.0398C96.9759 17.7064 96.1463 17.2178 95.4645 16.5739C94.7827 15.9299 94.2618 15.1477 93.902 14.2273C93.5421 13.3068 93.3603 12.2614 93.3565 11.0909C93.3603 9.92424 93.5421 8.85795 93.902 7.89205C94.2618 6.92235 94.7884 6.08523 95.4815 5.38068C96.1785 4.67235 97.0327 4.125 98.044 3.73864C99.0554 3.35227 100.213 3.15909 101.516 3.15909C102.69 3.15909 103.749 3.32008 104.692 3.64205C105.639 3.96023 106.447 4.42992 107.118 5.05114C107.792 5.66856 108.307 6.42803 108.663 7.32955C109.023 8.23106 109.201 9.26515 109.197 10.4318C109.201 11.2273 109.118 11.9242 108.947 12.5227C108.777 13.1174 108.525 13.6193 108.192 14.0284C107.858 14.4375 107.449 14.7557 106.964 14.983C106.483 15.2102 105.932 15.3523 105.311 15.4091C104.754 15.4621 104.355 15.4356 104.112 15.3295C103.87 15.2235 103.713 15.072 103.641 14.875C103.569 14.678 103.512 14.4697 103.47 14.25H103.402C103.315 14.4848 103.112 14.6894 102.794 14.8636C102.476 15.0379 102.101 15.1686 101.669 15.2557C101.237 15.3428 100.807 15.3712 100.379 15.3409C99.9626 15.3106 99.5459 15.2102 99.1293 15.0398C98.7126 14.8693 98.33 14.6136 97.9815 14.2727C97.6368 13.9318 97.3603 13.4943 97.152 12.9602C96.9437 12.4223 96.8376 11.7765 96.8338 11.0227C96.8376 10.2652 96.9418 9.62121 97.1463 9.09091C97.3546 8.56061 97.6217 8.12311 97.9474 7.77841C98.277 7.43371 98.6312 7.16856 99.0099 6.98295C99.3925 6.79735 99.758 6.67424 100.107 6.61364C100.565 6.5303 101.01 6.52083 101.442 6.58523C101.874 6.64583 102.241 6.75 102.544 6.89773C102.847 7.04167 103.035 7.19697 103.107 7.36364H103.197V6.72727H105.357V12.5455C105.364 12.7727 105.402 12.9242 105.47 13C105.542 13.0758 105.625 13.1136 105.72 13.1136C105.898 13.1136 106.065 13.0114 106.22 12.8068C106.379 12.5985 106.506 12.2822 106.601 11.858C106.699 11.4299 106.747 10.8864 106.743 10.2273C106.747 9.37879 106.637 8.67045 106.413 8.10227C106.194 7.5303 105.898 7.07197 105.527 6.72727C105.156 6.37879 104.741 6.11742 104.283 5.94318C103.828 5.76515 103.36 5.64773 102.879 5.59091C102.398 5.5303 101.944 5.5 101.516 5.5C100.535 5.5 99.6899 5.64773 98.9815 5.94318C98.277 6.23485 97.6974 6.63636 97.2429 7.14773C96.7884 7.6553 96.4512 8.23674 96.2315 8.89205C96.0156 9.54356 95.9058 10.2311 95.902 10.9545C95.9058 11.8068 96.0289 12.5587 96.2713 13.2102C96.5175 13.8617 96.8755 14.4072 97.3452 14.8466C97.8187 15.286 98.4001 15.6174 99.0895 15.8409C99.7827 16.0682 100.576 16.1818 101.47 16.1818C101.921 16.1818 102.358 16.1553 102.783 16.1023C103.207 16.053 103.597 15.9848 103.953 15.8977C104.309 15.8144 104.61 15.7197 104.857 15.6136L105.584 17.6591C105.345 17.8182 105.01 17.964 104.578 18.0966C104.15 18.233 103.654 18.3409 103.089 18.4205C102.529 18.5038 101.929 18.5455 101.288 18.5455ZM101.288 13C101.724 13 102.065 12.9205 102.311 12.7614C102.561 12.5985 102.735 12.3636 102.834 12.0568C102.936 11.7462 102.982 11.3712 102.97 10.9318C102.966 10.5985 102.923 10.2879 102.839 10C102.76 9.70833 102.597 9.47348 102.351 9.29545C102.108 9.11364 101.739 9.02273 101.243 9.02273C100.83 9.02273 100.48 9.09659 100.192 9.24432C99.9077 9.38826 99.6899 9.60417 99.5384 9.89205C99.3906 10.1761 99.3149 10.5303 99.3111 10.9545C99.3149 11.303 99.3774 11.6345 99.4986 11.9489C99.6236 12.2595 99.8281 12.5133 100.112 12.7102C100.4 12.9034 100.792 13 101.288 13ZM114.766 18.4545C113.891 18.4545 113.141 18.3295 112.516 18.0795C111.894 17.8333 111.411 17.4924 111.067 17.0568C110.726 16.625 110.535 16.1288 110.493 15.5682H113.516C113.546 15.7538 113.622 15.9034 113.743 16.017C113.864 16.1307 114.019 16.2121 114.209 16.2614C114.402 16.3144 114.618 16.3409 114.857 16.3409C115.262 16.3409 115.597 16.2424 115.862 16.0455C116.131 15.8485 116.266 15.4924 116.266 14.9773V13.5H116.175C116.061 13.7955 115.887 14.0473 115.652 14.2557C115.417 14.4602 115.135 14.6174 114.805 14.7273C114.476 14.8333 114.114 14.8864 113.72 14.8864C113.099 14.8864 112.527 14.7424 112.004 14.4545C111.485 14.1667 111.069 13.7102 110.754 13.0852C110.444 12.4602 110.288 11.6439 110.288 10.6364C110.288 9.58333 110.451 8.72727 110.777 8.06818C111.107 7.40909 111.531 6.92614 112.05 6.61932C112.572 6.3125 113.122 6.15909 113.697 6.15909C114.129 6.15909 114.508 6.23485 114.834 6.38636C115.16 6.53409 115.432 6.73295 115.652 6.98295C115.872 7.22917 116.038 7.5 116.152 7.79545H116.22V6.27273H119.357V14.9773C119.357 15.7159 119.165 16.3428 118.783 16.858C118.404 17.3769 117.87 17.7727 117.18 18.0455C116.491 18.3182 115.686 18.4545 114.766 18.4545ZM114.879 12.6591C115.167 12.6591 115.413 12.5795 115.618 12.4205C115.826 12.2576 115.985 12.0265 116.095 11.7273C116.209 11.4242 116.266 11.0606 116.266 10.6364C116.266 10.2045 116.209 9.83523 116.095 9.52841C115.985 9.2178 115.826 8.98106 115.618 8.81818C115.413 8.65151 115.167 8.56818 114.879 8.56818C114.591 8.56818 114.345 8.65151 114.141 8.81818C113.94 8.98106 113.785 9.2178 113.675 9.52841C113.569 9.83523 113.516 10.2045 113.516 10.6364C113.516 11.0682 113.569 11.4356 113.675 11.7386C113.785 12.0379 113.94 12.267 114.141 12.4261C114.345 12.5814 114.591 12.6591 114.879 12.6591ZM120.952 15V6.27273H123.929V7.93182H124.02C124.202 7.38636 124.512 6.95455 124.952 6.63636C125.391 6.31818 125.914 6.15909 126.52 6.15909C127.134 6.15909 127.662 6.32197 128.105 6.64773C128.548 6.9697 128.815 7.39773 128.906 7.93182H128.997C129.145 7.39773 129.459 6.9697 129.94 6.64773C130.421 6.32197 130.986 6.15909 131.634 6.15909C132.471 6.15909 133.149 6.42803 133.668 6.96591C134.19 7.50379 134.452 8.2197 134.452 9.11364V15H131.315V9.90909C131.315 9.52652 131.219 9.22727 131.026 9.01136C130.832 8.79167 130.573 8.68182 130.247 8.68182C129.925 8.68182 129.67 8.79167 129.48 9.01136C129.295 9.22727 129.202 9.52652 129.202 9.90909V15H126.202V9.90909C126.202 9.52652 126.105 9.22727 125.912 9.01136C125.719 8.79167 125.459 8.68182 125.134 8.68182C124.918 8.68182 124.732 8.73106 124.577 8.82955C124.421 8.92803 124.3 9.07008 124.213 9.25568C124.13 9.4375 124.088 9.6553 124.088 9.90909V15H120.952ZM138.43 15.1364C137.874 15.1364 137.381 15.0455 136.953 14.8636C136.529 14.678 136.196 14.3977 135.953 14.0227C135.711 13.6477 135.589 13.1705 135.589 12.5909C135.589 12.1136 135.671 11.7064 135.834 11.3693C135.997 11.0284 136.224 10.75 136.516 10.5341C136.807 10.3182 137.146 10.1534 137.533 10.0398C137.923 9.92614 138.343 9.85227 138.794 9.81818C139.283 9.7803 139.675 9.73485 139.97 9.68182C140.269 9.625 140.485 9.54735 140.618 9.44886C140.75 9.34659 140.817 9.21212 140.817 9.04545V9.02273C140.817 8.79545 140.73 8.62121 140.555 8.5C140.381 8.37879 140.158 8.31818 139.885 8.31818C139.586 8.31818 139.341 8.38447 139.152 8.51705C138.966 8.64583 138.855 8.8447 138.817 9.11364H135.93C135.968 8.58333 136.137 8.0947 136.436 7.64773C136.739 7.19697 137.18 6.83712 137.76 6.56818C138.339 6.29545 139.063 6.15909 139.93 6.15909C140.555 6.15909 141.116 6.23295 141.612 6.38068C142.108 6.52462 142.531 6.72727 142.879 6.98864C143.228 7.24621 143.493 7.54924 143.675 7.89773C143.86 8.24242 143.953 8.61742 143.953 9.02273V15H141.021V13.7727H140.953C140.779 14.0985 140.567 14.3617 140.317 14.5625C140.071 14.7633 139.788 14.9091 139.47 15C139.156 15.0909 138.809 15.1364 138.43 15.1364ZM139.453 13.1591C139.692 13.1591 139.915 13.1098 140.124 13.0114C140.336 12.9129 140.508 12.7708 140.641 12.5852C140.773 12.3996 140.839 12.1742 140.839 11.9091V11.1818C140.756 11.2159 140.667 11.2481 140.572 11.2784C140.482 11.3087 140.383 11.3371 140.277 11.3636C140.175 11.3902 140.065 11.4148 139.947 11.4375C139.834 11.4602 139.714 11.4811 139.589 11.5C139.347 11.5379 139.148 11.6004 138.993 11.6875C138.841 11.7708 138.728 11.875 138.652 12C138.58 12.1212 138.544 12.2576 138.544 12.4091C138.544 12.6515 138.629 12.8371 138.8 12.9659C138.97 13.0947 139.188 13.1591 139.453 13.1591ZM145.452 15V6.27273H148.588V15H145.452ZM147.02 5.36364C146.596 5.36364 146.232 5.22348 145.929 4.94318C145.626 4.66288 145.474 4.32576 145.474 3.93182C145.474 3.53788 145.626 3.20076 145.929 2.92045C146.232 2.64015 146.596 2.5 147.02 2.5C147.448 2.5 147.812 2.64015 148.111 2.92045C148.414 3.20076 148.565 3.53788 148.565 3.93182C148.565 4.32576 148.414 4.66288 148.111 4.94318C147.812 5.22348 147.448 5.36364 147.02 5.36364ZM153.322 3.36364V15H150.186V3.36364H153.322ZM156.625 15.1818C156.186 15.1818 155.809 15.0284 155.494 14.7216C155.184 14.411 155.03 14.0341 155.034 13.5909C155.03 13.1591 155.184 12.7898 155.494 12.483C155.809 12.1761 156.186 12.0227 156.625 12.0227C157.042 12.0227 157.409 12.1761 157.727 12.483C158.049 12.7898 158.212 13.1591 158.216 13.5909C158.212 13.8864 158.134 14.1553 157.983 14.3977C157.835 14.6364 157.642 14.8277 157.403 14.9716C157.165 15.1117 156.905 15.1818 156.625 15.1818ZM164.125 15.1591C163.178 15.1591 162.367 14.9716 161.693 14.5966C161.019 14.2178 160.502 13.6913 160.142 13.017C159.782 12.339 159.602 11.553 159.602 10.6591C159.602 9.76515 159.782 8.98106 160.142 8.30682C160.502 7.62879 161.019 7.10227 161.693 6.72727C162.367 6.34848 163.178 6.15909 164.125 6.15909C164.981 6.15909 165.722 6.31439 166.347 6.625C166.975 6.93182 167.462 7.36742 167.807 7.93182C168.152 8.49242 168.326 9.15152 168.33 9.90909H165.42C165.379 9.45076 165.246 9.10227 165.023 8.86364C164.803 8.62121 164.519 8.5 164.17 8.5C163.898 8.5 163.659 8.57955 163.455 8.73864C163.25 8.89394 163.091 9.13068 162.977 9.44886C162.864 9.76326 162.807 10.1591 162.807 10.6364C162.807 11.1136 162.864 11.5114 162.977 11.8295C163.091 12.1439 163.25 12.3807 163.455 12.5398C163.659 12.6951 163.898 12.7727 164.17 12.7727C164.402 12.7727 164.606 12.7197 164.784 12.6136C164.962 12.5038 165.106 12.3447 165.216 12.1364C165.33 11.9242 165.398 11.6667 165.42 11.3636H168.33C168.318 12.1326 168.142 12.803 167.801 13.375C167.46 13.9432 166.977 14.3826 166.352 14.6932C165.731 15.0038 164.989 15.1591 164.125 15.1591ZM173.828 15.1591C172.881 15.1591 172.071 14.9716 171.396 14.5966C170.722 14.2178 170.205 13.6913 169.845 13.017C169.485 12.339 169.305 11.553 169.305 10.6591C169.305 9.76515 169.485 8.98106 169.845 8.30682C170.205 7.62879 170.722 7.10227 171.396 6.72727C172.071 6.34848 172.881 6.15909 173.828 6.15909C174.775 6.15909 175.586 6.34848 176.26 6.72727C176.934 7.10227 177.451 7.62879 177.811 8.30682C178.171 8.98106 178.351 9.76515 178.351 10.6591C178.351 11.553 178.171 12.339 177.811 13.017C177.451 13.6913 176.934 14.2178 176.26 14.5966C175.586 14.9716 174.775 15.1591 173.828 15.1591ZM173.851 12.8409C174.116 12.8409 174.345 12.7519 174.538 12.5739C174.732 12.3958 174.881 12.142 174.987 11.8125C175.093 11.483 175.146 11.0909 175.146 10.6364C175.146 10.178 175.093 9.78598 174.987 9.46023C174.881 9.13068 174.732 8.87689 174.538 8.69886C174.345 8.52083 174.116 8.43182 173.851 8.43182C173.571 8.43182 173.33 8.52083 173.129 8.69886C172.929 8.87689 172.775 9.13068 172.669 9.46023C172.563 9.78598 172.51 10.178 172.51 10.6364C172.51 11.0909 172.563 11.483 172.669 11.8125C172.775 12.142 172.929 12.3958 173.129 12.5739C173.33 12.7519 173.571 12.8409 173.851 12.8409ZM179.624 15V6.27273H182.601V7.93182H182.692C182.874 7.38636 183.184 6.95455 183.624 6.63636C184.063 6.31818 184.586 6.15909 185.192 6.15909C185.805 6.15909 186.334 6.32197 186.777 6.64773C187.22 6.9697 187.487 7.39773 187.578 7.93182H187.669C187.817 7.39773 188.131 6.9697 188.612 6.64773C189.093 6.32197 189.658 6.15909 190.305 6.15909C191.143 6.15909 191.821 6.42803 192.339 6.96591C192.862 7.50379 193.124 8.2197 193.124 9.11364V15H189.987V9.90909C189.987 9.52652 189.891 9.22727 189.697 9.01136C189.504 8.79167 189.245 8.68182 188.919 8.68182C188.597 8.68182 188.341 8.79167 188.152 9.01136C187.966 9.22727 187.874 9.52652 187.874 9.90909V15H184.874V9.90909C184.874 9.52652 184.777 9.22727 184.584 9.01136C184.391 8.79167 184.131 8.68182 183.805 8.68182C183.589 8.68182 183.404 8.73106 183.249 8.82955C183.093 8.92803 182.972 9.07008 182.885 9.25568C182.802 9.4375 182.76 9.6553 182.76 9.90909V15H179.624Z" fill="black"/>
</svg>
